<svg xmlns="http://www.w3.org/2000/svg" width="512" height="512" style="enable-background:new 0 0 512 512" xml:space="preserve">
  <g xmlns="http://www.w3.org/2000/svg">
    <path d="M438.319 10.02H73.681c-35.159 0-63.661 29.259-63.661 65.352v361.256c0 36.093 28.502 65.352 63.661 65.352H438.32c35.159 0 63.661-29.259 63.661-65.352V75.372c-.001-36.093-28.503-65.352-63.662-65.352z" fill="#7ddac2" data-original="#7ddac2"/>
    <path d="M351.724 72.452H124.96c-16.189 0-29.31 12.83-29.31 28.658v309.741c0 15.829 13.121 28.658 29.31 28.658h196.715c5.303 0 9.824-3.846 10.674-9.081L381.035 130.6v-29.49c0-15.829-13.122-28.658-29.311-28.658z" fill="#fff7bf" data-original="#fff7bf"/>
    <path d="m398.347 246.533-67.199-18.19 26.828-99.109c5.013-18.52 24.091-29.47 42.611-24.456l.131.036c18.52 5.013 29.47 24.091 24.456 42.611z" fill="#80b6ff" data-original="#80b6ff"/>
    <path d="m331.135 228.19 67.18 18.17-37.237 137.68-67.18-18.17z" fill="#ccf5fc" data-original="#ccf5fc"/>
    <path d="m361.068 384.25-67.199-18.19 8.447 66.681c1.121 8.846 12.393 11.897 17.823 4.824z" fill="#faf7f5" data-original="#faf7f5"/>
    <g>
      <path d="M438.319 0H73.681C33.053 0 0 33.811 0 75.372v361.256C0 478.189 33.053 512 73.681 512h364.638C478.947 512 512 478.189 512 436.628V75.372C512 33.811 478.947 0 438.319 0zm53.642 436.628c0 30.511-24.064 55.333-53.642 55.333H73.681c-29.578 0-53.642-24.822-53.642-55.333V75.372c0-30.511 24.064-55.333 53.642-55.333h364.638c29.578 0 53.642 24.822 53.642 55.333z" data-original="#000000"/>
      <circle cx="260.313" cy="298.077" r="10" data-original="#000000"/>
      <path d="M403.272 93.193a44.935 44.935 0 0 0-13.016-1.558c-4.753-16.829-20.237-29.203-38.566-29.203H125.71c-22.099 0-40.078 17.979-40.078 40.078v306.98c0 22.099 17.979 40.078 40.078 40.078l186.546-.004a19.928 19.928 0 0 0 15.831-7.829L369 388.441c.809-.995 1.407-2.272 1.74-3.504l64.089-236.76c3.129-11.559 1.569-23.643-4.39-34.028-5.961-10.385-15.609-17.827-27.167-20.956zM105.67 409.49V102.51c0-11.05 8.989-20.039 20.039-20.039h225.98c9.031 0 16.68 6.008 19.175 14.235a46.25 46.25 0 0 0-1.621.879c-10.386 5.96-17.828 15.608-20.956 27.165l-64.089 236.76a10.174 10.174 0 0 0-.253 4.002l8.11 64.017H125.709c-11.05 0-20.039-8.989-20.039-20.039zm206.575 19.964-6.555-51.746 38.322 10.374zm41.77-59.425-47.855-12.955 32.043-118.373 47.855 12.954zm61.471-227.089-24.193 89.372-47.855-12.954 24.192-89.373c1.73-6.39 5.845-11.726 11.588-15.022 5.744-3.296 12.427-4.159 18.817-2.429 6.391 1.731 11.727 5.846 15.023 11.589 3.296 5.744 4.158 12.426 2.428 18.817z" data-original="#000000"/>
      <path d="M260.313 138.766H145.015c-5.533 0-10.02 4.486-10.02 10.02 0 5.533 4.486 10.02 10.02 10.02h115.298c5.533 0 10.02-4.486 10.02-10.02s-4.487-10.02-10.02-10.02zM260.313 188.529H145.015c-5.533 0-10.02 4.486-10.02 10.02 0 5.533 4.486 10.02 10.02 10.02h115.298c5.533 0 10.02-4.486 10.02-10.02 0-5.533-4.487-10.02-10.02-10.02zM260.313 238.294H145.015c-5.533 0-10.02 4.486-10.02 10.02s4.486 10.02 10.02 10.02h115.298c5.533 0 10.02-4.486 10.02-10.02s-4.487-10.02-10.02-10.02zM215.316 288.058h-70.301c-5.533 0-10.02 4.486-10.02 10.02s4.486 10.02 10.02 10.02h70.301c5.533 0 10.02-4.486 10.02-10.02s-4.487-10.02-10.02-10.02z" data-original="#000000"/>
    </g>
  </g>
</svg>
