<svg xmlns="http://www.w3.org/2000/svg" width="512" height="512" style="enable-background:new 0 0 512 512" xml:space="preserve">
  <g xmlns="http://www.w3.org/2000/svg">
    <path d="M438.443 501.98H73.557c-35.091 0-63.537-28.447-63.537-63.537V73.557c0-35.091 28.447-63.537 63.537-63.537h364.887c35.091 0 63.537 28.447 63.537 63.537v364.887c-.001 35.09-28.447 63.536-63.538 63.536z" fill="#e38eba" data-original="#e38eba"/>
    <path d="M144.947 172.563v225.516c0 19.738 16.001 35.738 35.739 35.738h150.629c19.738 0 35.738-16.001 35.738-35.738V172.563z" fill="#ccf5fc" data-original="#ccf5fc"/>
    <path d="M360.32 126.043H151.68c-15.614 0-28.272 12.658-28.272 28.272 0 15.614 12.658 28.272 28.272 28.272H360.321c15.614 0 28.272-12.658 28.272-28.272-.001-15.614-12.658-28.272-28.273-28.272z" fill="#faf7f5" data-original="#faf7f5"/>
    <g>
      <path d="M438.319 0H73.681C33.053 0 0 33.053 0 73.681v364.638C0 478.947 33.053 512 73.681 512h364.638C478.947 512 512 478.947 512 438.319V73.681C512 33.053 478.947 0 438.319 0zm53.642 438.319c0 29.578-24.064 53.642-53.642 53.642H73.681c-29.578 0-53.642-24.064-53.642-53.642V73.681c0-29.578 24.064-53.642 53.642-53.642h364.638c29.578 0 53.642 24.064 53.642 53.642z" data-original="#000000"/>
      <circle cx="256" cy="182.582" r="10" data-original="#000000"/>
      <path d="M360.32 116.023h-57.388c.006-.304.017-.607.017-.911 0-25.887-21.061-46.949-46.949-46.949s-46.949 21.062-46.949 46.949c0 .304.011.607.017.911H151.68c-21.114 0-38.292 17.177-38.292 38.292 0 15.11 8.799 28.2 21.54 34.425v209.339c0 25.231 20.527 45.757 45.758 45.757h150.629c25.231 0 45.758-20.526 45.758-45.757V188.74c12.741-6.225 21.54-19.315 21.54-34.425-.001-21.114-17.179-38.292-38.293-38.292zm-131.23-.91c0-14.839 12.072-26.91 26.91-26.91s26.91 12.071 26.91 26.91c0 .305-.024.607-.034.911h-53.753c-.009-.304-.033-.606-.033-.911zm131.23 57.455h-59.407c-5.534 0-10.02 4.486-10.02 10.02s4.486 10.02 10.02 10.02h56.12v205.473c0 14.181-11.537 25.718-25.719 25.718H180.685c-14.182 0-25.719-11.537-25.719-25.718V192.607h56.12c5.534 0 10.02-4.486 10.02-10.02s-4.486-10.02-10.02-10.02H151.68c-10.065 0-18.252-8.188-18.252-18.252 0-10.065 8.188-18.252 18.252-18.252h68.874c.102.002.203.002.305 0h70.221c.07.001.139.008.209.008.065 0 .13-.007.195-.008h68.837c10.065 0 18.252 8.188 18.252 18.252 0 10.065-8.188 18.253-18.253 18.253z" data-original="#000000"/>
      <path d="M198.421 235.58c-5.534 0-10.02 4.486-10.02 10.02v136.987c0 5.533 4.486 10.02 10.02 10.02s10.02-4.486 10.02-10.02V245.6c0-5.533-4.486-10.02-10.02-10.02zM256 235.58c-5.534 0-10.02 4.486-10.02 10.02v136.987c0 5.533 4.486 10.02 10.02 10.02s10.02-4.486 10.02-10.02V245.6c0-5.533-4.486-10.02-10.02-10.02zM313.579 392.607c5.534 0 10.02-4.486 10.02-10.02V245.6c0-5.533-4.486-10.02-10.02-10.02s-10.02 4.486-10.02 10.02v136.987c0 5.533 4.486 10.02 10.02 10.02z" data-original="#000000"/>
    </g>
  </g>
</svg>
